<svg version="1.1" id="Layer_1" xmlns="http://www.w3.org/2000/svg" xmlns:xlink="http://www.w3.org/1999/xlink" x="0px" y="0px"
	 width="100%" viewBox="0 0 128 128" enable-background="new 0 0 128 128" xml:space="preserve">
<path fill="#FD911D" opacity="1.000000" stroke="none" 
	d="
M1.000000,49.000000 
	C1.000000,43.977909 1.000000,38.955814 1.467241,33.466862 
	C5.577338,32.996883 9.223869,32.891800 12.861882,33.022961 
	C15.763950,33.127594 17.053696,32.099018 17.049595,29.030640 
	C17.044582,25.281120 16.125221,20.178720 18.124096,18.162529 
	C20.111938,16.157465 25.227100,17.060217 28.971861,17.050444 
	C31.980026,17.042593 33.128323,15.883797 33.025074,12.920845 
	C32.886761,8.951758 32.996670,4.974022 33.000000,1.000000 
	C43.354229,1.000000 53.708454,1.000000 64.531342,1.467241 
	C65.000732,5.253675 65.195084,8.587147 64.951591,11.888326 
	C64.668152,15.731215 66.009285,17.144075 70.007271,17.076574 
	C82.616554,16.863682 95.233154,17.105488 107.843811,16.937857 
	C111.604599,16.887867 113.469490,17.882021 113.045845,21.963793 
	C112.790321,24.425774 112.607269,27.035290 113.175026,29.389591 
	C113.509537,30.776699 115.279884,32.674686 116.571014,32.815475 
	C120.671959,33.262642 124.851089,32.992748 129.000000,33.000000 
	C129.000000,38.022091 129.000000,43.044186 128.532547,48.533138 
	C123.142441,49.000000 118.219780,49.000000 113.310471,49.000000 
	C113.310471,59.973881 113.310471,70.345222 113.310471,81.000000 
	C118.745514,81.000000 123.872757,81.000000 129.000000,81.000000 
	C129.000000,86.022095 129.000000,91.044182 128.531342,96.533142 
	C85.708458,97.000000 43.354229,97.000000 1.000000,97.000000 
	C1.000000,91.977905 1.000000,86.955818 1.467454,81.466858 
	C6.857563,81.000000 11.780220,81.000000 16.689528,81.000000 
	C16.689528,70.026016 16.689528,59.654724 16.689528,49.000000 
	C11.254485,49.000000 6.127243,49.000000 1.000000,49.000000 
z"/>
<path fill="#DC7E1A" opacity="1.000000" stroke="none" 
	d="
M1.000000,97.466858 
	C43.354229,97.000000 85.708458,97.000000 128.531342,97.000000 
	C129.000000,102.022095 129.000000,107.044182 128.531342,112.533142 
	C85.708458,113.000000 43.354229,113.000000 1.000000,113.000000 
	C1.000000,107.977905 1.000000,102.955818 1.000000,97.466858 
z"/>
<path fill="#E3AB6E" opacity="1.000000" stroke="none" 
	d="
M1.000000,113.471199 
	C43.354229,113.000000 85.708458,113.000000 128.531342,113.000000 
	C129.000000,118.318535 129.000000,123.637077 129.000000,128.953003 
	C86.333305,128.950409 43.666634,128.950409 1.000000,128.950409 
	C1.000000,123.914665 1.000000,118.928535 1.000000,113.471199 
z"/>
<path fill="#EEB679" opacity="1.000000" stroke="none" 
	d="
M129.000000,32.531342 
	C124.851089,32.992748 120.671959,33.262642 116.571014,32.815475 
	C115.279884,32.674686 113.509537,30.776699 113.175026,29.389591 
	C112.607269,27.035290 112.790321,24.425774 113.045845,21.963793 
	C113.469490,17.882021 111.604599,16.887867 107.843811,16.937857 
	C95.233154,17.105488 82.616554,16.863682 70.007271,17.076574 
	C66.009285,17.144075 64.668152,15.731215 64.951591,11.888326 
	C65.195084,8.587147 65.000732,5.253675 65.000000,1.467241 
	C86.235641,1.000000 107.471283,1.000000 129.000000,1.000000 
	C129.000000,11.352386 129.000000,21.707535 129.000000,32.531342 
z"/>
<path fill="#EEB679" opacity="1.000000" stroke="none" 
	d="
M32.531342,1.000000 
	C32.996670,4.974022 32.886761,8.951758 33.025074,12.920845 
	C33.128323,15.883797 31.980026,17.042593 28.971861,17.050444 
	C25.227100,17.060217 20.111938,16.157465 18.124096,18.162529 
	C16.125221,20.178720 17.044582,25.281120 17.049595,29.030640 
	C17.053696,32.099018 15.763950,33.127594 12.861882,33.022961 
	C9.223869,32.891800 5.577338,32.996883 1.467241,33.000000 
	C1.000000,22.406796 1.000000,11.813590 1.000000,1.000000 
	C11.353187,1.000000 21.707935,1.000000 32.531342,1.000000 
z"/>
<path fill="#000000" opacity="1.000000" stroke="none" 
	d="
M1.000000,49.468658 
	C6.127243,49.000000 11.254485,49.000000 16.689528,49.000000 
	C16.689528,59.654724 16.689528,70.026016 16.689528,81.000000 
	C11.780220,81.000000 6.857563,81.000000 1.467454,81.000000 
	C1.000000,70.645775 1.000000,60.291546 1.000000,49.468658 
z"/>
<path fill="#000000" opacity="1.000000" stroke="none" 
	d="
M129.000000,80.531342 
	C123.872757,81.000000 118.745514,81.000000 113.310471,81.000000 
	C113.310471,70.345222 113.310471,59.973881 113.310471,49.000000 
	C118.219780,49.000000 123.142441,49.000000 128.532547,49.000000 
	C129.000000,59.354229 129.000000,69.708458 129.000000,80.531342 
z"/>
</svg>